<svg xmlns="http://www.w3.org/2000/svg" width="21.229" height="20.437" viewBox="0 0 21.229 20.437"><path d="M10.615,20.436a10.842,10.842,0,0,1-4.1-.8,10.647,10.647,0,0,1-3.358-2.18A10.247,10.247,0,0,1,.882,14.221,9.9,9.9,0,0,1,.856,6.275,10.241,10.241,0,0,1,3.12,3.014,10.643,10.643,0,0,1,6.488.81a10.922,10.922,0,0,1,8.253,0,10.643,10.643,0,0,1,3.368,2.2,10.241,10.241,0,0,1,2.264,3.261,9.9,9.9,0,0,1-.026,7.947,10.247,10.247,0,0,1-2.274,3.236,10.647,10.647,0,0,1-3.358,2.18A10.842,10.842,0,0,1,10.615,20.436Zm0-19.172A9.508,9.508,0,0,0,7,1.974,9.335,9.335,0,0,0,4.044,3.906,8.982,8.982,0,0,0,2.057,6.764a8.681,8.681,0,0,0,.02,6.97,8.987,8.987,0,0,0,1.994,2.84,9.338,9.338,0,0,0,2.945,1.913,9.58,9.58,0,0,0,7.2,0,9.338,9.338,0,0,0,2.945-1.913,8.987,8.987,0,0,0,1.994-2.84,8.681,8.681,0,0,0,.02-6.97,8.982,8.982,0,0,0-1.986-2.858,9.335,9.335,0,0,0-2.953-1.932A9.508,9.508,0,0,0,10.615,1.265Z" fill="#7e5f1f"/><path d="M4.628,8.928A.676.676,0,0,1,4.5,8.917a.666.666,0,0,1-.12-.034.65.65,0,0,1-.215-.138L.2,4.915a.634.634,0,0,1-.081-.1.622.622,0,0,1-.06-.108.609.609,0,0,1,0-.481.62.62,0,0,1,.06-.108.632.632,0,0,1,.081-.1L4.168.185A.651.651,0,0,1,4.383.046a.674.674,0,0,1,.49,0,.651.651,0,0,1,.215.138.627.627,0,0,1,.143.208.613.613,0,0,1,0,.474.627.627,0,0,1-.143.208l-3.512,3.4L5.088,7.859a.623.623,0,0,1,.143.207.608.608,0,0,1,0,.472.623.623,0,0,1-.143.207.65.65,0,0,1-.215.138.666.666,0,0,1-.12.034A.676.676,0,0,1,4.628,8.928Z" transform="translate(5.986 5.782)" fill="#7e5f1f"/><path d="M8.593,1.256H.652A.669.669,0,0,1,.4,1.207a.654.654,0,0,1-.207-.135.63.63,0,0,1-.14-.2.61.61,0,0,1,0-.489.627.627,0,0,1,.139-.2A.652.652,0,0,1,.4.049.668.668,0,0,1,.65,0H8.594a.667.667,0,0,1,.253.049.652.652,0,0,1,.207.135.627.627,0,0,1,.139.2.61.61,0,0,1,0,.489.63.63,0,0,1-.14.2.654.654,0,0,1-.207.135A.669.669,0,0,1,8.593,1.256Z" transform="translate(5.993 9.625)" fill="#7e5f1f"/></svg>