<svg xmlns="http://www.w3.org/2000/svg" width="21.229" height="20.437" viewBox="0 0 21.229 20.437"><path d="M10.615,0a10.841,10.841,0,0,1,4.127.81,10.643,10.643,0,0,1,3.368,2.2,10.241,10.241,0,0,1,2.264,3.261,9.9,9.9,0,0,1-.026,7.947,10.247,10.247,0,0,1-2.274,3.236,10.647,10.647,0,0,1-3.358,2.18,10.923,10.923,0,0,1-8.2,0,10.647,10.647,0,0,1-3.358-2.18A10.247,10.247,0,0,1,.882,14.221,9.9,9.9,0,0,1,.856,6.275,10.241,10.241,0,0,1,3.12,3.014,10.643,10.643,0,0,1,6.488.81,10.841,10.841,0,0,1,10.615,0Zm0,19.188a9.509,9.509,0,0,0,3.6-.7,9.338,9.338,0,0,0,2.945-1.913,8.987,8.987,0,0,0,1.994-2.84,8.681,8.681,0,0,0,.02-6.97,8.982,8.982,0,0,0-1.986-2.858,9.335,9.335,0,0,0-2.953-1.932A9.579,9.579,0,0,0,7,1.974,9.335,9.335,0,0,0,4.044,3.906,8.982,8.982,0,0,0,2.057,6.764a8.681,8.681,0,0,0,.02,6.97,8.987,8.987,0,0,0,1.994,2.84,9.338,9.338,0,0,0,2.945,1.913A9.509,9.509,0,0,0,10.615,19.188Z" fill="#7e5f1f"/><path d="M.651,0A.676.676,0,0,1,.775.011.666.666,0,0,1,.9.046a.651.651,0,0,1,.215.138L5.083,4.026a.624.624,0,0,1,.143.208.61.61,0,0,1,0,.473.626.626,0,0,1-.143.208L1.11,8.745A.65.65,0,0,1,.9,8.882a.674.674,0,0,1-.489,0,.65.65,0,0,1-.215-.138.623.623,0,0,1-.143-.207.608.608,0,0,1,0-.472.623.623,0,0,1,.143-.207L3.7,4.471.191,1.075A.627.627,0,0,1,.048.867a.613.613,0,0,1,0-.474A.627.627,0,0,1,.191.184.651.651,0,0,1,.406.046.666.666,0,0,1,.527.011.676.676,0,0,1,.651,0Z" transform="translate(9.964 5.783)" fill="#7e5f1f"/><path d="M.65,0H8.594a.668.668,0,0,1,.253.049.652.652,0,0,1,.207.135.627.627,0,0,1,.139.2.61.61,0,0,1,0,.489.63.63,0,0,1-.14.2.654.654,0,0,1-.207.135.669.669,0,0,1-.253.049H.652A.669.669,0,0,1,.4,1.207a.654.654,0,0,1-.207-.135.63.63,0,0,1-.14-.2.61.61,0,0,1,0-.489.627.627,0,0,1,.139-.2A.652.652,0,0,1,.4.049.668.668,0,0,1,.65,0Z" transform="translate(5.993 9.625)" fill="#7e5f1f"/></svg>