<svg xmlns="http://www.w3.org/2000/svg" xmlns:xlink="http://www.w3.org/1999/xlink" width="19.324" height="19.334" viewBox="0 0 19.324 19.334"><defs><clipPath id="a"><rect width="19.324" height="19.334" fill="#838383"/></clipPath></defs><g clip-path="url(#a)"><path d="M11.374,2.6A3.937,3.937,0,0,1,16.94,8.17h0L14.3,10.807a3.911,3.911,0,0,1-1.761,1.021h0A4,4,0,0,1,9.864,11.6,4.017,4.017,0,0,1,7.938,9.672a.725.725,0,0,0-1.307.627,5.462,5.462,0,0,0,2.611,2.612l.013.006a5.448,5.448,0,0,0,3.659.311,5.36,5.36,0,0,0,2.414-1.4l2.639-2.639,0,0a5.418,5.418,0,0,0,1.573-3.816,5.385,5.385,0,0,0-9.194-3.8L8.734,3.189A.725.725,0,0,0,9.76,4.215Z" transform="translate(-0.218 0)" fill="#838383"/><path d="M10.336,6.664A5.392,5.392,0,0,0,4.2,7.717L1.576,10.345a5.387,5.387,0,0,0,7.619,7.618l1.769-1.769a.725.725,0,1,0-1.026-1.026L8.169,16.937A3.937,3.937,0,0,1,2.6,11.37L5.231,8.74v0A3.943,3.943,0,0,1,9.71,7.972a4.09,4.09,0,0,1,1.078.769,3.942,3.942,0,0,1,.768,1.077.725.725,0,1,0,1.308-.627,5.424,5.424,0,0,0-1.05-1.475,5.56,5.56,0,0,0-1.47-1.047Z" transform="translate(0 -0.205)" fill="#838383"/></g></svg>