<svg xmlns="http://www.w3.org/2000/svg" xmlns:xlink="http://www.w3.org/1999/xlink" width="44.087" height="26.471" viewBox="0 0 44.087 26.471"><defs><clipPath id="a"><rect width="44.087" height="26.471" transform="translate(0 0)" fill="none"/></clipPath></defs><g transform="translate(0 0)"><g clip-path="url(#a)"><path d="M13.236,1A12.236,12.236,0,0,0,4.584,21.888a12.156,12.156,0,0,0,8.652,3.583H30.852A12.235,12.235,0,0,0,39.5,4.584,12.156,12.156,0,0,0,30.852,1Zm0-1H30.852a13.236,13.236,0,1,1,0,26.471H13.236A13.236,13.236,0,1,1,13.236,0" fill="#663e3e"/><path d="M15.309,12.38H21.25V6.08h1.559v6.3H28.75v1.561H22.809v6.45H21.25v-6.45H15.309Z" fill="#663e3e"/></g></g></svg>