<svg xmlns="http://www.w3.org/2000/svg" width="18.465" height="18.465" viewBox="0 0 18.465 18.465"><g transform="translate(6377.691 8473.949)"><path d="M.75,0A.75.75,0,1,1,0,.75.75.75,0,0,1,.75,0Z" transform="translate(-6364.543 -8470.133)" fill="#f7f4f1"/><path d="M15.457,11.185a4.165,4.165,0,0,1,.609.045,4.143,4.143,0,0,1,1.255,7.8,4.161,4.161,0,0,1-1.862.442,4.143,4.143,0,0,1,0-8.286Zm0,6.786a2.643,2.643,0,1,0-1.87-.774A2.627,2.627,0,0,0,15.459,17.971Z" transform="translate(-6383.879 -8480.082)" fill="#f7f4f1"/><path d="M7.241,2.25h8.482a5,5,0,0,1,4.991,4.991v8.482a5,5,0,0,1-4.991,4.991H7.241A5,5,0,0,1,2.25,15.724V7.241A5,5,0,0,1,7.241,2.25Zm8.482,16.965a3.5,3.5,0,0,0,3.491-3.491V7.241A3.5,3.5,0,0,0,15.724,3.75H7.241A3.5,3.5,0,0,0,3.75,7.241v8.482a3.5,3.5,0,0,0,3.491,3.491Z" transform="translate(-6379.941 -8476.199)" fill="#f7f4f1"/></g></svg>