<svg xmlns="http://www.w3.org/2000/svg" width="46.583" height="46.583" viewBox="0 0 46.583 46.583"><circle cx="23.292" cy="23.292" r="23.292" fill="#f7f4f1"/><g transform="translate(13.355 10.684)"><path d="M19.575,193.087a1.087,1.087,0,0,0-2.175,0,7.612,7.612,0,0,1-15.225,0,1.087,1.087,0,0,0-2.175,0,9.8,9.8,0,0,0,8.7,9.723v3.327H6.525a1.088,1.088,0,0,0,0,2.175H13.05a1.088,1.088,0,0,0,0-2.175H10.875v-3.327a9.8,9.8,0,0,0,8.7-9.723" transform="translate(0 -182.213)"/><path d="M90.77,16.312a5.444,5.444,0,0,0,5.437-5.437V5.437a5.437,5.437,0,1,0-10.875,0v5.437a5.444,5.444,0,0,0,5.437,5.437" transform="translate(-80.983 0)"/></g></svg>