<svg id="Group_6419" data-name="Group 6419" xmlns="http://www.w3.org/2000/svg" xmlns:xlink="http://www.w3.org/1999/xlink" width="18.631" height="24.158" viewBox="0 0 18.631 24.158">
  <defs>
    <clipPath id="clip-path">
      <rect id="Rectangle_902" data-name="Rectangle 902" width="18.631" height="24.158" fill="#989898"/>
    </clipPath>
  </defs>
  <g id="Group_933" data-name="Group 933" clip-path="url(#clip-path)">
    <path id="Path_4946" data-name="Path 4946" d="M15.973,7.259H13.555a.886.886,0,1,0,0,1.772h2.418a.887.887,0,0,1,.886.886V21.5a.887.887,0,0,1-.886.886H2.657a.887.887,0,0,1-.886-.886V9.916a.887.887,0,0,1,.886-.886H5.076a.886.886,0,0,0,0-1.772H2.657A2.661,2.661,0,0,0,0,9.916V21.5a2.661,2.661,0,0,0,2.657,2.657H15.973A2.661,2.661,0,0,0,18.631,21.5V9.916A2.661,2.661,0,0,0,15.973,7.259ZM6.012,5.471,8.459,3.024V14.686a.886.886,0,1,0,1.772,0V3.024l2.447,2.447A.886.886,0,1,0,13.93,4.218L9.972.259a.886.886,0,0,0-1.253,0L4.76,4.218A.886.886,0,1,0,6.012,5.471Z" transform="translate(0 0)" fill="#989898"/>
  </g>
</svg>
