<svg xmlns="http://www.w3.org/2000/svg" xmlns:xlink="http://www.w3.org/1999/xlink" width="292" height="147" viewBox="0 0 292 147"><defs><clipPath id="a"><rect width="123" height="147" transform="translate(1044 3379)" fill="#fff" stroke="#707070" stroke-width="1"/></clipPath><clipPath id="b"><rect width="123" height="147" fill="#fff" stroke="#707070" stroke-width="1"/></clipPath></defs><g transform="translate(-1044 -3379)"><g clip-path="url(#a)"><g transform="matrix(0.839, 0.545, -0.545, 0.839, 21395.961, 15578.413)"><path d="M19.428,40.075l-.079-.175-.117.132c.066.017.13.03.2.043" transform="translate(-23659.699 873.131)" fill="#7e5f1f"/><path d="M16.809,40.485A27.466,27.466,0,0,0,18.37,58.636l2.022,4.477c4.778,7.281,10.337,10.166,12.443,11.05l-.077-.169a34.6,34.6,0,0,0,30.618.948l3.65-1.649,7.223-3.351-.058-.13A34.554,34.554,0,0,0,89.69,50a10.332,10.332,0,0,1,.323-1.149c.068-.267.135-.534.2-.8l.021.045c.952-3.454,2.369-11.176-2.665-22.034-.216-.468-.41-.91-.581-1.331a27.517,27.517,0,0,0-11.368-10.8A11.126,11.126,0,0,0,79.988,0L73.8,2.794a4.467,4.467,0,0,1-2.309,5.871l-3.078,1.39c-.677.307-1.341.634-1.986.982a29.255,29.255,0,0,0-16.088,2.345l-17.22,7.776a29.275,29.275,0,0,0-12.4,10.518c-.686.254-1.371.536-2.048.842l-3.078,1.39a4.467,4.467,0,0,1-5.931-2.149l-6.191,2.8a11.125,11.125,0,0,0,13.338,5.931m19.029-13.3L53.056,19.4a22.686,22.686,0,0,1,4.769-1.548,30.532,30.532,0,0,0-7.612,18.2,30.537,30.537,0,0,0-18.688-6.326,22.543,22.543,0,0,1,4.314-2.554m-10.64,10A23.475,23.475,0,0,1,52.732,49.9l3.159,6.994,6.191-2.794L58.923,47.1A23.479,23.479,0,0,1,67.6,18.04,21.243,21.243,0,0,1,82.014,29.9c6.076,13.455-.231,29.48-14.059,35.726l-7.3,3.295c-13.827,6.245-30.02.38-36.1-13.077A21.238,21.238,0,0,1,25.2,37.185" transform="translate(-23673.576 838)" fill="#7e5f1f"/><path d="M47.056,20.794A5.99,5.99,0,1,1,39.2,17.949a5.91,5.91,0,0,1,7.855,2.845" transform="translate(-23645.254 853.323)" fill="#7e5f1f"/><path d="M30.651,28.2A5.99,5.99,0,1,1,22.8,25.357,5.91,5.91,0,0,1,30.651,28.2" transform="translate(-23659.697 859.845)" fill="#7e5f1f"/><path d="M93.679,98.4V25.328h-6.61V83.257a11.7,11.7,0,0,1-8.374-11.2V66.3h-6.61v5.758A18.316,18.316,0,0,0,87.069,90.041V98.2a26.268,26.268,0,0,1-22.921-26.02V53.7h-6.61V72.177A32.813,32.813,0,0,0,70.626,98.395,45.741,45.741,0,0,1,25.74,53.7h-.011V25.328h-6.61V52.717A51.951,51.951,0,0,0,34.436,89.7,52.567,52.567,0,0,0,45.924,98.4H0v6.61H112.8V98.4Z" transform="translate(-23676.633 860.301)" fill="#7e5f1f"/></g></g><g transform="translate(1213 3379)" clip-path="url(#b)"><g transform="translate(108.493 199.547) rotate(-172)"><path d="M.2,0,.117.175,0,.043C.066.026.13.013.2,0" transform="translate(36.166 52.109)" fill="#7e5f1f"/><path d="M13.338,37.571A27.466,27.466,0,0,1,14.9,19.42l2.022-4.477C21.7,7.661,27.258,4.777,29.364,3.893l-.077.169A34.6,34.6,0,0,1,59.9,3.114l3.65,1.649,7.223,3.351-.058.13a34.554,34.554,0,0,1,15.5,19.811,10.332,10.332,0,0,0,.323,1.149c.068.267.135.534.2.8l.021-.045C87.712,33.417,89.13,41.138,84.1,52c-.216.468-.41.91-.581,1.331a27.517,27.517,0,0,1-11.368,10.8,11.126,11.126,0,0,1,4.37,13.929l-6.191-2.794a4.467,4.467,0,0,0-2.309-5.871L64.939,68c-.677-.307-1.341-.634-1.986-.982a29.254,29.254,0,0,1-16.088-2.345L29.646,56.9a29.275,29.275,0,0,1-12.4-10.518c-.686-.254-1.371-.536-2.048-.842l-3.078-1.39A4.467,4.467,0,0,0,6.191,46.3L0,43.5a11.125,11.125,0,0,1,13.338-5.931m19.029,13.3,17.218,7.776A22.686,22.686,0,0,0,54.354,60.2,30.532,30.532,0,0,1,46.741,42a30.537,30.537,0,0,1-18.688,6.326,22.542,22.542,0,0,0,4.314,2.554m-10.64-10a23.475,23.475,0,0,0,27.534-12.71l3.159-6.994,6.191,2.794-3.159,6.994a23.479,23.479,0,0,0,8.673,29.061A21.243,21.243,0,0,0,78.542,48.16c6.076-13.455-.231-29.48-14.059-35.726l-7.3-3.295c-13.827-6.245-30.02-.38-36.1,13.077a21.238,21.238,0,0,0,.637,18.654" transform="translate(6.528 49.259)" fill="#7e5f1f"/><path d="M11.42,8.32A5.91,5.91,0,0,0,8.361.545,5.909,5.909,0,0,0,.506,3.392a5.907,5.907,0,0,0,3.06,7.774A5.907,5.907,0,0,0,11.42,8.32" transform="translate(67.015 82.878)" fill="#7e5f1f"/><path d="M11.42,8.32A5.91,5.91,0,0,0,8.361.545,5.909,5.909,0,0,0,.506,3.392a5.907,5.907,0,0,0,3.06,7.774A5.907,5.907,0,0,0,11.42,8.32" transform="translate(36.167 68.947)" fill="#7e5f1f"/><path d="M93.679,6.61V79.686h-6.61V21.757a11.7,11.7,0,0,0-8.374,11.2v5.758h-6.61V32.958A18.316,18.316,0,0,1,87.069,14.972V6.817a26.268,26.268,0,0,0-22.921,26.02V51.319h-6.61V32.837A32.813,32.813,0,0,1,70.626,6.619a45.741,45.741,0,0,0-44.885,44.7h-.011V79.686h-6.61V52.3A51.951,51.951,0,0,1,34.436,15.318,52.566,52.566,0,0,1,45.923,6.61H0V0H112.8V6.61Z" transform="translate(0 0)" fill="#7e5f1f"/></g></g></g></svg>