<svg xmlns="http://www.w3.org/2000/svg" width="46.079" height="46.079" viewBox="0 0 46.079 46.079"><path d="M14.534,0A14.534,14.534,0,0,1,29.068,14.534c0,8.027-6.507,16.856-14.534,16.856S0,22.561,0,14.534A14.534,14.534,0,0,1,14.534,0Z" transform="translate(8.289 8.227)" fill="#181818"/><path d="M14.534,1A13.534,13.534,0,0,0,1,14.534,16.33,16.33,0,0,0,2.078,20.2,18.432,18.432,0,0,0,5.03,25.338a14.869,14.869,0,0,0,4.327,3.67,10.692,10.692,0,0,0,5.177,1.382,10.692,10.692,0,0,0,5.177-1.382,14.869,14.869,0,0,0,4.327-3.67A18.432,18.432,0,0,0,26.989,20.2a16.33,16.33,0,0,0,1.078-5.668A13.534,13.534,0,0,0,14.534,1m0-1A14.534,14.534,0,0,1,29.068,14.534c0,8.027-6.507,16.856-14.534,16.856S0,22.561,0,14.534A14.534,14.534,0,0,1,14.534,0Z" transform="translate(8.289 8.227)" fill="#707070"/><path d="M23.6.563A23.039,23.039,0,1,0,46.641,23.6,23.035,23.035,0,0,0,23.6.563ZM34.35,25.831,18,35.214a2.234,2.234,0,0,1-3.317-1.951V13.94A2.235,2.235,0,0,1,18,11.989L34.35,21.93A2.237,2.237,0,0,1,34.35,25.831Z" transform="translate(-0.563 -0.563)" fill="#f7f4f1"/></svg>