<svg xmlns="http://www.w3.org/2000/svg" width="26.211" height="18.43" viewBox="0 0 26.211 18.43"><path d="M26.713,7.384A3.293,3.293,0,0,0,24.4,5.051C22.352,4.5,14.155,4.5,14.155,4.5s-8.2,0-10.24.551A3.294,3.294,0,0,0,1.6,7.384a34.551,34.551,0,0,0-.548,6.35,34.551,34.551,0,0,0,.548,6.35,3.244,3.244,0,0,0,2.317,2.3c2.044.551,10.24.551,10.24.551s8.2,0,10.24-.551a3.244,3.244,0,0,0,2.317-2.3,34.551,34.551,0,0,0,.548-6.35,34.551,34.551,0,0,0-.548-6.35ZM11.475,17.631V9.836l6.851,3.9-6.851,3.9Z" transform="translate(-1.05 -4.5)" fill="#f7f4f1"/></svg>