<svg xmlns="http://www.w3.org/2000/svg" xmlns:xlink="http://www.w3.org/1999/xlink" width="326.362" height="46.409" viewBox="0 0 326.362 46.409">
  <defs>
    <clipPath id="clip-path">
      <rect id="Rectangle_1048" data-name="Rectangle 1048" width="326.362" height="46.409" fill="none"/>
    </clipPath>
  </defs>
  <g id="Group_1130" data-name="Group 1130" transform="translate(0 0)">
    <g id="Group_1114" data-name="Group 1114" transform="translate(0 0)" clip-path="url(#clip-path)">
      <path id="Path_5060" data-name="Path 5060" d="M225.776,30.581a6.243,6.243,0,0,1,12.485,0,6.243,6.243,0,0,1-12.485,0" transform="translate(88.1 9.522)" fill="#815f1f"/>
      <path id="Path_5061" data-name="Path 5061" d="M42.88,22.1a14.873,14.873,0,0,0,1.349-5.2c0-2.44-1.67-2.953-3.467-3.98l-1.026-.577V11.312H51.353v.963l-.578.449c-.9.706-3.145,2.825-5.2,7.831L36.782,41.546H32.738L25.227,22.8l-8.28,18.744H12.9L3.274,17.409C1.991,14.265,1.285,12.916,0,12.339V11.312H17.075v1.027l-1.347.128a1.739,1.739,0,0,0-1.734,1.861,9.35,9.35,0,0,0,.963,3.274l4.878,12.581L24.265,20.3l-1.155-2.89c-1.285-3.145-1.991-4.493-3.274-5.07V11.312H36.91v1.027l-1.349.128a1.739,1.739,0,0,0-1.732,1.861,9.334,9.334,0,0,0,.962,3.274l4.814,12.454Z" transform="translate(0 4.414)" fill="#1a1818"/>
      <path id="Path_5062" data-name="Path 5062" d="M45.1,25.4c.9,7,4.878,12.26,11.361,12.26a16.61,16.61,0,0,0,7.19-1.861l.449.962a19.927,19.927,0,0,1-13.479,5.521c-10.784,0-15.664-7.382-15.664-14.956,0-8.537,6.356-16.753,15.664-16.753,5.2,0,10.335,2.825,12.26,9.629l.641.642v.641Zm3.466-12.517c-1.925,0-3.659,2.889-3.659,9.437V23.8l8.731-1.734c-.578-5.778-2.953-9.18-5.071-9.18" transform="translate(13.64 4.126)" fill="#1a1818"/>
      <path id="Path_5063" data-name="Path 5063" d="M80.485,42.173c-2.376,0-4.493-.642-5.648-2.7a16.653,16.653,0,0,1-8.858,2.632c-4.814,0-8.858-2.438-8.858-7.125,0-7.446,10.271-8.731,16.689-9.5.256,0,.513-.064.77-.064V22.98c0-4.428,0-7.638-1.157-9.307a2.444,2.444,0,0,0-1.989-1.155c-2.632,0-2.887,3.531-2.887,5.714v1.476L58.275,21.7a1.3,1.3,0,0,1-.193-.706c0-5.391,7.254-10.463,16.3-10.463,3.338,0,6.74.321,9.307,3.338,1.091,1.476,1.476,3.081,1.476,7.061V36.076c0,2.181.386,2.953,1.221,2.953a5.437,5.437,0,0,0,2.438-.834l.514,1.09a14.773,14.773,0,0,1-8.858,2.889M74.58,26.96c-4.814.836-7.254,2.7-7.254,7.125,0,3.21,1.606,4.75,3.98,4.75a8.587,8.587,0,0,0,3.274-.77Z" transform="translate(22.289 4.108)" fill="#1a1818"/>
      <path id="Path_5064" data-name="Path 5064" d="M94.549,40.633c0,2.374.578,3.4,2.889,3.852l1.027.192v.963H80.427v-.963l1.155-.321c1.091-.321,2.119-1.091,2.119-3.209V10.913a4.92,4.92,0,0,0-1.8-4.044L79.978,5.391v-.7L94.292,0l.836.513a41.778,41.778,0,0,0-.578,7.832Z" transform="translate(31.208 0)" fill="#1a1818"/>
      <path id="Path_5065" data-name="Path 5065" d="M107.034,16.03V35.8c0,3.466,1.476,5.263,3.98,5.263a9.311,9.311,0,0,0,4.044-1.155L115.7,41a16.365,16.365,0,0,1-10.206,3.338c-5.072,0-9.629-2.183-9.629-6.612,0-1.989.321-6.227.321-10.142V16.03H92.4v-.963A123.709,123.709,0,0,0,106.2,5.31l1.348.385c-.193,1.734-.514,5.071-.514,7.254v.706h8.216V16.03Z" transform="translate(36.055 2.072)" fill="#1a1818"/>
      <path id="Path_5066" data-name="Path 5066" d="M112.717,10.913a4.967,4.967,0,0,0-1.861-4.044L108.93,5.393V4.686L123.309,0l.834.514a48.6,48.6,0,0,0-.578,7.831V19c3.274-2.055,6.612-4.108,10.528-4.108,5.006,0,8.152,2.566,8.729,7.253.065.834.065,1.991.065,2.953V41.66c0,1.54.385,2.311,2.438,2.76l1.155.257v.962h-17.4v-.962l1.027-.257c1.412-.385,1.925-1.283,1.925-3.531V29.015c0-2.7-.128-3.531-.128-4.237-.193-3.915-1.476-5.521-3.531-5.521a12.988,12.988,0,0,0-4.814,1.221V41.467A2.619,2.619,0,0,0,126,44.42l1.8.257v.962H109.444v-.962l1.09-.257c1.155-.257,2.183-.706,2.183-3.531Z" transform="translate(42.506 0)" fill="#1a1818"/>
      <path id="Path_5067" data-name="Path 5067" d="M176.791,22.1a14.905,14.905,0,0,0,1.349-5.2c0-2.44-1.67-2.953-3.466-3.98l-1.029-.577V11.312h11.619v.963l-.578.449c-.9.706-3.145,2.825-5.2,7.831l-8.793,20.991h-4.044L159.138,22.8l-8.28,18.744h-4.044l-9.629-24.137c-1.283-3.145-1.989-4.493-3.274-5.07V11.312h17.075v1.027l-1.347.128a1.739,1.739,0,0,0-1.734,1.861,9.35,9.35,0,0,0,.963,3.274l4.878,12.581,4.429-9.884-1.155-2.89c-1.285-3.145-1.991-4.493-3.274-5.07V11.312h17.075v1.027l-1.349.128a1.739,1.739,0,0,0-1.732,1.861A9.334,9.334,0,0,0,168.7,17.6l4.814,12.454Z" transform="translate(52.254 4.414)" fill="#815f1f"/>
      <path id="Path_5068" data-name="Path 5068" d="M195.871,42.3a58.3,58.3,0,0,1-7.575-.642l-2.824.193-1.027-11.169,1.091-.257,1.8,2.632c2.889,4.236,6.291,7.446,9.629,7.446,2.247,0,4.044-1.283,4.044-3.594,0-3.21-4.237-4.688-8.924-7.575s-7.574-4.942-7.574-9.629c0-5.2,5.072-9.18,13.03-9.18a38.376,38.376,0,0,1,8.281.9l.513,8.921-1.155.259-1.348-1.735c-2.889-3.722-5.07-6.61-8.023-6.61a3.4,3.4,0,0,0-3.4,3.53c0,2.889,3.21,4.429,6.805,6.227,4.429,2.247,9.629,5.008,9.629,10.527,0,6.805-5.329,9.758-12.966,9.758" transform="translate(71.972 4.107)" fill="#815f1f"/>
      <path id="Path_5069" data-name="Path 5069" d="M213.612,25.4c.9,7,4.878,12.26,11.361,12.26a16.61,16.61,0,0,0,7.19-1.861l.449.962a19.927,19.927,0,0,1-13.479,5.521c-10.784,0-15.664-7.382-15.664-14.956,0-8.537,6.356-16.753,15.664-16.753,5.2,0,10.335,2.825,12.26,9.629l.641.642v.641Zm3.466-12.517c-1.925,0-3.659,2.889-3.659,9.437V23.8l8.731-1.734c-.578-5.778-2.953-9.18-5.072-9.18" transform="translate(79.396 4.126)" fill="#815f1f"/>
      <path id="Path_5070" data-name="Path 5070" d="M178.493,13.245a5.464,5.464,0,0,0,5.778-5.714,5.778,5.778,0,0,0-11.555,0,5.531,5.531,0,0,0,5.778,5.714" transform="translate(67.395 0.684)" fill="#815f1f"/>
      <path id="Path_5071" data-name="Path 5071" d="M187.309,40.438a3.182,3.182,0,0,1-2.5-3.338V18.549a50.855,50.855,0,0,1,.514-7.9l-.514-.45-12.533,3.777v.706l.544.435c.948.822,1.165,1.638,1.144,3.979v1.152l0,.029V37.1c0,2.119-.962,2.953-2.117,3.274l-1.155.321v.962h17.907V40.7Z" transform="translate(66.603 3.981)" fill="#815f1f"/>
    </g>
  </g>
</svg>
