<svg xmlns="http://www.w3.org/2000/svg" xmlns:xlink="http://www.w3.org/1999/xlink" width="24.43" height="27.573" viewBox="0 0 24.43 27.573">
  <defs>
    <clipPath id="clip-path">
      <rect id="Rectangle_883" data-name="Rectangle 883" width="24.43" height="27.573" fill="#836528"/>
    </clipPath>
  </defs>
  <g id="Group_6421" data-name="Group 6421" transform="translate(0 3)">
    <g id="Group_887" data-name="Group 887" transform="translate(0 -3.001)" clip-path="url(#clip-path)">
      <path id="Path_4921" data-name="Path 4921" d="M19.274,39.938l-.017-.038-.025.029.042.009" transform="translate(-11.4 -23.65)" fill="#836528"/>
      <path id="Path_4922" data-name="Path 4922" d="M6.36,8.768A5.948,5.948,0,0,0,6.7,12.7l.438.97A6.26,6.26,0,0,0,9.83,16.062l-.017-.037a7.493,7.493,0,0,0,6.631.205l.79-.357,1.564-.726-.013-.028a7.483,7.483,0,0,0,3.357-4.291,2.239,2.239,0,0,1,.07-.249c.015-.058.029-.116.043-.174l0,.01a6.751,6.751,0,0,0-.577-4.772c-.047-.1-.089-.2-.126-.288A5.959,5.959,0,0,0,19.1,3.017,2.41,2.41,0,0,0,20.043,0L18.7.605a.967.967,0,0,1-.5,1.271l-.667.3c-.147.066-.29.137-.43.213a6.336,6.336,0,0,0-3.484.508L9.892,4.582A6.34,6.34,0,0,0,7.206,6.86c-.149.055-.3.116-.444.182l-.667.3a.968.968,0,0,1-1.285-.466l-1.341.606A2.409,2.409,0,0,0,6.36,8.768m4.121-2.881L14.21,4.2a4.913,4.913,0,0,1,1.033-.335A6.612,6.612,0,0,0,13.594,7.81,6.614,6.614,0,0,0,9.547,6.44a4.882,4.882,0,0,1,.934-.553m-2.3,2.167a5.084,5.084,0,0,1,5.963,2.753l.684,1.515,1.341-.605L15.48,10.2a5.085,5.085,0,0,1,1.878-6.294,4.6,4.6,0,0,1,3.122,2.568,5.887,5.887,0,0,1-3.045,7.737l-1.581.714a5.887,5.887,0,0,1-7.817-2.832,4.6,4.6,0,0,1,.138-4.04" transform="translate(-2.057 0)" fill="#836528"/>
      <path id="Path_4923" data-name="Path 4923" d="M38.109,18.137a1.3,1.3,0,1,1-1.7-.616,1.28,1.28,0,0,1,1.7.616" transform="translate(-21.123 -10.315)" fill="#836528"/>
      <path id="Path_4924" data-name="Path 4924" d="M21.7,25.545a1.3,1.3,0,1,1-1.7-.616,1.28,1.28,0,0,1,1.7.616" transform="translate(-11.399 -14.706)" fill="#836528"/>
      <path id="Path_4925" data-name="Path 4925" d="M20.288,41.154V25.328H18.857V37.874a2.533,2.533,0,0,1-1.814-2.426V34.2H15.612v1.247a3.967,3.967,0,0,0,3.245,3.9v1.766a5.689,5.689,0,0,1-4.964-5.635v-4H12.461v4A7.106,7.106,0,0,0,15.3,41.152a9.906,9.906,0,0,1-9.721-9.681h0V25.328H4.141V31.26a11.251,11.251,0,0,0,3.317,8.008,11.384,11.384,0,0,0,2.488,1.886H0v1.432H24.43V41.154Z" transform="translate(0 -15.013)" fill="#836528"/>
    </g>
  </g>
</svg>
